<svg xmlns="http://www.w3.org/2000/svg" xmlns:xlink="http://www.w3.org/1999/xlink" viewBox="0 0 1920 885"><defs><style>.a{fill:#352283;}.b{opacity:0.51;}.c{fill:#5a53d4;}.d{fill:#ae9cfc;}.e{fill:#6d5ce0;}.f{fill:#6555b9;}.g{fill:#4d3eb3;}.h{fill:#4339ab;}.i{fill:#675abe;}.j{fill:#4d3db3;}.k{fill:#5f51af;}.l{fill:#8f467d;}.m{fill:#43269a;}.n{fill:#372085;}.o{fill:url(#a);}.p{fill:#7b4f7a;}.q{fill:#72427d;}.r{fill:url(#b);}.s{fill:url(#c);}.t{fill:#fff;}.u{fill:url(#d);}.af,.v{opacity:0.67;}.v{fill:url(#e);}.w{fill:#b258b7;}.x{fill:#ff74ff;}.y{fill:#5a5dd1;opacity:0.6;}.z{fill:#5635bc;}.aa{fill:#6f3ae8;}.ab{fill:url(#f);}.ac{fill:url(#g);}.ad{fill:#4b3bc3;}.ae{fill:url(#h);}.af{fill:url(#i);}.ag{fill:url(#j);}.ah{fill:url(#k);}.ai{fill:#9b5177;}.aj{fill:url(#l);}.ak{fill:#914e7a;}.al{fill:#4f33a2;}</style><linearGradient id="a" x1="170.67" y1="129.45" x2="495.24" y2="129.45" gradientUnits="userSpaceOnUse"><stop offset="0" stop-color="#fff" stop-opacity="0.3"/><stop offset="0.12" stop-color="#f6d9fd" stop-opacity="0.25"/><stop offset="0.49" stop-color="#db6ff7" stop-opacity="0.11"/><stop offset="0.8" stop-color="#cb2df3" stop-opacity="0.03"/><stop offset="1" stop-color="#c515f2" stop-opacity="0"/></linearGradient><linearGradient id="b" x1="1515.69" y1="644.74" x2="1695.07" y2="644.74" xlink:href="#a"/><linearGradient id="c" x1="1731.51" y1="717.82" x2="1931.05" y2="749.26" gradientUnits="userSpaceOnUse"><stop offset="0.16" stop-color="#c515f2" stop-opacity="0"/><stop offset="0.93" stop-color="#faecfe" stop-opacity="0.18"/><stop offset="1" stop-color="#fff" stop-opacity="0.2"/></linearGradient><radialGradient id="d" cx="1478.51" cy="747.16" r="174.71" gradientUnits="userSpaceOnUse"><stop offset="0" stop-color="#4a66ff"/><stop offset="0.3" stop-color="#4c68fe"/><stop offset="0.47" stop-color="#546efd"/><stop offset="0.6" stop-color="#6279fa"/><stop offset="0.72" stop-color="#7688f6"/><stop offset="0.83" stop-color="#8f9bf0"/><stop offset="0.92" stop-color="#aeb2ea"/><stop offset="1" stop-color="#cdcae3"/><stop offset="1" stop-color="#bdb0f7"/></radialGradient><linearGradient id="e" x1="1579.68" y1="614.65" x2="1529.63" y2="572.05" gradientUnits="userSpaceOnUse"><stop offset="0" stop-color="#7083f7" stop-opacity="0.6"/><stop offset="0.06" stop-color="#6a7cea" stop-opacity="0.57"/><stop offset="0.15" stop-color="#5a69c6" stop-opacity="0.48"/><stop offset="0.26" stop-color="#3f4a8b" stop-opacity="0.34"/><stop offset="0.38" stop-color="#1a1f3a" stop-opacity="0.14"/><stop offset="0.46" stop-opacity="0"/></linearGradient><linearGradient id="f" x1="1519.55" y1="572.45" x2="1533.42" y2="572.45" gradientUnits="userSpaceOnUse"><stop offset="0" stop-color="#4c8aff"/><stop offset="0.21" stop-color="#4d81fc"/><stop offset="0.56" stop-color="#5169f4"/><stop offset="1" stop-color="#5642e7"/></linearGradient><linearGradient id="g" x1="1505.9" y1="560.32" x2="1547.49" y2="560.32" gradientUnits="userSpaceOnUse"><stop offset="0" stop-color="#4c8aff"/><stop offset="0.15" stop-color="#4e7efb"/><stop offset="0.71" stop-color="#5453ed"/><stop offset="1" stop-color="#5642e7"/></linearGradient><radialGradient id="h" cx="1575.04" cy="695.08" r="174.71" xlink:href="#d"/><linearGradient id="i" x1="1676.21" y1="562.58" x2="1626.16" y2="519.98" xlink:href="#e"/><linearGradient id="j" x1="1616.08" y1="520.37" x2="1629.95" y2="520.37" xlink:href="#f"/><linearGradient id="k" x1="1602.43" y1="508.24" x2="1644.02" y2="508.24" xlink:href="#g"/><linearGradient id="l" x1="1674.02" y1="550.07" x2="1938.22" y2="418.74" gradientUnits="userSpaceOnUse"><stop offset="0" stop-color="#6854b0"/><stop offset="0.42" stop-color="#5d45a9"/><stop offset="1" stop-color="#5134a2"/></linearGradient></defs><rect class="a" width="1920" height="885"/><g class="b"><polygon class="c" points="1443.94 366.15 1398.55 338.08 1452.36 293.94 1494.94 324.04 1443.94 366.15"/><polygon class="d" points="1494.94 324.04 1452.36 293.94 1508.04 281.93 1559.98 309.54 1494.94 324.04"/><polygon class="e" points="1494.94 344.16 1443.94 366.15 1494.94 324.04 1559.98 309.54 1494.94 344.16"/></g><polygon class="f" points="1625.86 125.37 1566.54 89.57 1621.15 58.48 1680.21 94.01 1625.86 125.37"/><polygon class="g" points="1671.32 127.98 1625.86 125.37 1680.21 94.01 1671.32 127.98"/><g class="b"><polygon class="f" points="503.49 473.95 425.25 426.73 497.29 385.71 575.18 432.59 503.49 473.95"/><polygon class="g" points="563.46 477.39 503.49 473.95 575.18 432.59 563.46 477.39"/></g><polygon class="h" points="1370.24 175.79 1326.75 150.04 1366.44 80.8 1401.9 107.82 1370.24 175.79"/><polygon class="i" points="1401.9 107.82 1366.44 80.8 1423.43 68.98 1473.25 100.22 1401.9 107.82"/><polygon class="j" points="1370.24 175.79 1401.9 107.82 1473.25 100.22 1422.17 180.01 1370.24 175.79"/><g class="b"><polygon class="h" points="249.85 792.1 150.88 733.49 241.2 575.91 321.91 637.41 249.85 792.1"/><polygon class="i" points="321.91 637.41 241.2 575.91 370.91 549.01 484.29 620.11 321.91 637.41"/><polygon class="j" points="249.85 792.1 321.91 637.41 484.29 620.11 368.03 801.71 249.85 792.1"/></g><polygon class="k" points="307.39 0 258.61 48.78 201.33 106.05 201.32 106.06 137.74 169.65 137.73 169.66 0 307.38 0 304.13 198.26 105.87 256.48 47.65 304.13 0 307.39 0"/><polygon class="k" points="330.79 0 273.89 56.9 231.45 99.33 231.44 99.34 178.88 151.91 178.87 151.92 0 330.78 0 327.52 173.14 154.39 227.25 100.27 271.76 55.77 327.53 0 330.79 0"/><polygon class="k" points="354.18 0 289.16 65.02 261.56 92.62 0 354.18 0 350.92 217.53 133.39 257.37 93.55 287.04 63.89 350.93 0 354.18 0"/><polygon class="k" points="377.58 0 304.44 73.14 291.68 85.9 274.54 103.04 0 377.57 0 374.32 267.58 106.74 287.49 86.83 302.31 72.01 374.32 0 377.58 0"/><polygon class="k" points="1920 209.53 1920 211.66 1612.81 518.85 1605.78 525.88 1605.6 526.06 1579.2 552.46 1578.27 553.39 1576.32 555.34 1561.03 570.63 1551.35 580.31 1549.22 580.31 1559.73 569.8 1576.02 553.51 1576.94 552.59 1630.81 498.72 1630.82 498.72 1632.11 497.42 1920 209.53"/><path class="k" d="M1920,224.77v2.12l-286,286-4,4h0l0,0-.92.92-2.16,2.16-14.46,14.46-.84.84-18.82,18.82-4,4-18.57,18.57-3.58,3.58h-2.12l4.45-4.45,12.8-12.8,4.76-4.76.93-.93,4-4,18.82-18.82.78-.78,13.58-13.58,2.71-2.71,1-1,2.18-2.18,8.49-8.49Z"/><polygon class="k" points="1920 240 1920 242.12 1648.92 513.2 1638.54 523.58 1638.13 523.99 1625.85 536.27 1624.47 537.65 1620.51 541.61 1581.81 580.31 1579.69 580.31 1591.66 568.34 1596.03 563.97 1601.05 558.95 1620.04 539.96 1622.26 537.74 1920 240"/><polygon class="k" points="1920 255.24 1920 257.36 1632.85 544.51 1626.45 550.92 1612.05 565.31 1597.05 580.31 1594.93 580.31 1610.71 564.53 1625.41 549.83 1657.02 518.22 1920 255.24"/><g class="b"><polygon class="c" points="106.37 183.18 23.76 132.08 121.7 51.73 199.2 106.53 106.37 183.18"/><polygon class="d" points="199.2 106.53 121.7 51.73 223.05 29.88 317.58 80.12 199.2 106.53"/><polygon class="e" points="199.2 143.15 106.37 183.18 199.2 106.53 317.58 80.12 199.2 143.15"/></g><polygon class="l" points="441.58 0 170.97 256.78 170.67 258.91 136.07 505.53 133.82 521.54 133.61 523.09 133.6 523.12 133.38 524.68 129.82 550.08 129.65 551.27 129.6 551.64 129.38 553.22 125.61 580.04 125.59 580.19 125.59 580.22 125.37 581.77 121.59 608.73 119.48 623.73 79.1 662.04 83.28 632.91 96.13 543.41 133.32 284.37 433 0 441.58 0"/><polygon class="m" points="669.01 0 136.07 505.53 170.67 258.91 170.97 256.78 441.63 0 669.01 0"/><polygon class="n" points="777.04 0 119.48 623.73 121.37 610.32 121.59 608.76 121.59 608.73 121.81 607.18 125.37 581.77 125.59 580.22 125.59 580.19 125.61 580.04 125.82 578.63 129.38 553.22 129.6 551.67 129.6 551.64 129.65 551.27 129.81 550.09 133.38 524.68 133.6 523.12 133.61 523.09 133.82 521.54 136.07 505.53 669.01 0 777.04 0"/><polygon class="o" points="495.24 0 170.67 258.91 170.97 256.78 441.63 0 495.24 0"/><polygon class="p" points="685.1 0 133.6 523.12 133.61 523.09 133.82 521.54 683.65 0 685.1 0"/><polygon class="q" points="686.52 0 133.38 524.68 133.6 523.12 133.61 523.09 685.07 0 686.52 0"/><polygon class="p" points="711.19 0 129.6 551.67 129.6 551.64 129.65 551.27 129.81 550.09 129.82 550.08 709.74 0 711.19 0"/><polygon class="q" points="712.6 0 129.38 553.22 129.6 551.67 129.6 551.64 711.16 0 712.6 0"/><polygon class="p" points="737.28 0 125.59 580.22 125.59 580.19 125.61 580.04 125.82 578.63 735.82 0 737.28 0"/><polygon class="q" points="738.69 0 125.37 581.77 125.59 580.22 125.59 580.19 737.24 0 738.69 0"/><polygon class="p" points="763.36 0 121.59 608.76 121.59 608.73 121.81 607.18 761.92 0 763.36 0"/><polygon class="q" points="764.79 0 121.37 610.32 121.59 608.76 121.59 608.73 763.34 0 764.79 0"/><polygon class="l" points="1920 618.72 1920 623.83 1516.84 623.93 1382.5 759.18 1318.66 823.46 1280.61 823.46 1296.39 807.68 1344.87 759.18 1485.19 618.83 1920 618.72"/><polygon class="m" points="1920 623.83 1920 759.18 1382.5 759.18 1515.69 625.08 1516.84 623.93 1695.07 623.88 1920 623.83"/><polygon class="n" points="1920 759.18 1920 823.46 1318.66 823.46 1325.91 816.17 1326.75 815.32 1326.77 815.3 1327.61 814.46 1341.33 800.65 1342.16 799.8 1342.18 799.78 1343.02 798.94 1356.74 785.12 1357.58 784.28 1357.6 784.26 1358.43 783.42 1372.15 769.6 1373 768.76 1373.02 768.74 1373.85 767.89 1382.5 759.18 1920 759.18"/><polygon class="r" points="1695.07 623.88 1685.09 665.59 1515.69 625.08 1516.84 623.93 1695.07 623.88"/><polygon class="s" points="1920 718.85 1920 759.18 1718 759.18 1738.06 675.36 1920 718.85"/><polygon class="p" points="1920 767.89 1920 768.76 1373 768.76 1373.02 768.74 1373.85 767.89 1920 767.89"/><polygon class="q" points="1920 768.74 1920 769.6 1372.15 769.6 1373 768.76 1373.02 768.74 1920 768.74"/><polygon class="p" points="1920 783.42 1920 784.28 1357.58 784.28 1357.6 784.26 1358.43 783.42 1920 783.42"/><polygon class="q" points="1920 784.26 1920 785.12 1356.74 785.12 1357.58 784.28 1357.6 784.26 1920 784.26"/><polygon class="p" points="1920 798.94 1920 799.8 1342.16 799.8 1342.18 799.78 1343.02 798.94 1920 798.94"/><polygon class="q" points="1920 799.78 1920 800.65 1341.33 800.65 1342.16 799.8 1342.18 799.78 1920 799.78"/><polygon class="p" points="1920 814.46 1920 815.32 1326.75 815.32 1326.77 815.3 1327.61 814.46 1920 814.46"/><polygon class="q" points="1920 815.3 1920 816.17 1325.91 816.17 1326.75 815.32 1326.77 815.3 1920 815.3"/><path class="t" d="M1596.85,601.72c-15.46,46.37-68.16,23.3-68.16,23.3l-49.37-28.6c0-.6,0-1.24,0-1.89.21-12.71,6.34-15.67,6.34-15.67l22-13.12a2.53,2.53,0,0,1,.2-.27,17.34,17.34,0,0,0,7.16,4.78c-3.68,1.89-6,4.76-6,8,0,5.14,6,9.41,13.92,10.23a25.9,25.9,0,0,0,2.81.15c9.23,0,16.72-4.64,16.72-10.38,0-3-2-5.67-5.3-7.56,4.76-1.61,8.31-4.29,9.66-7.46a5.52,5.52,0,0,0,.35-1c.37.23.75.44,1.13.66,12.7,7.46,28.68,17.56,39.91,28.66A65.6,65.6,0,0,1,1596.85,601.72Z"/><path class="u" d="M1623.52,720.69a43.42,43.42,0,0,1-24.33.09,36.7,36.7,0,0,1-9.12-3.88c-.46-.27-.92-.57-1.39-.9-.63-.43-1.28-.9-1.91-1.41-10.87-8.76-12.3-22.41-12.58-26.07-13.33-41.07-72.82-63.5-84-70.92-8.39-3.28-10.41-7.11-10.81-13.56,0-.24,0-.49,0-.74s0-.53,0-.81c0-1.81,0-3.81,0-6.07l1,.57,2.71,1.57,4.08,2.36,5.12,3,5.8,3.36,6.14,3.56c5.53,3.2,11,6.46,16.56,9.62,3.89,2.21,7.72,4.65,12,6.09,1.14.39,2.29.75,3.45,1.09,1.42.41,2.85.79,4.29,1.13,1.64.38,3.29.72,5,1,1.82.31,3.64.56,5.48.73s3.89.28,5.83.29a58.23,58.23,0,0,0,6-.31,46.91,46.91,0,0,0,6.1-1.07,40.13,40.13,0,0,0,6-2,35.3,35.3,0,0,0,11.07-7.34,38.69,38.69,0,0,0,4.77-5.68,46.58,46.58,0,0,0,4-7.23,55.91,55.91,0,0,0,2.11-5.43c10.85,14.85,27.47,49.69,38.18,75.92l.64,1.56c2.6,6.43,4.82,12.3,6.48,17.15C1651.67,717.94,1623.52,720.69,1623.52,720.69Z"/><path class="v" d="M1588.27,591.54c-2.54,12-16.09,21.18-32.43,21.18-17.74,0-32.19-10.79-32.85-24.29,0-.31,0-.64,0-1,0-11.55,10.12-21.3,23.92-24.29.49-.11,1-.21,1.48-.3C1561.06,570.34,1577,580.44,1588.27,591.54Z"/><ellipse class="w" cx="1543.69" cy="597.7" rx="7.38" ry="4.91"/><ellipse class="x" cx="1543.69" cy="596.32" rx="7.38" ry="4.91"/><ellipse class="w" cx="1562.42" cy="586.5" rx="7.38" ry="4.91"/><ellipse class="x" cx="1562.42" cy="585.12" rx="7.38" ry="4.91"/><ellipse class="w" cx="1564.17" cy="600.62" rx="5.57" ry="3.7"/><ellipse class="x" cx="1564.17" cy="599.58" rx="5.57" ry="3.7"/><path class="y" d="M1635,677.64a27.21,27.21,0,0,1-7.37,11.58c-3.17,2.83-8.35,5-14.94,6.2a62.71,62.71,0,0,1-27.49-1.19c-6-20.55-15.66-36.08-28.86-46.32-4.09-3.17-7.62-5.16-17-10.46-5.34-3-12.64-7.09-23-13.08-12.28-7.08-25-14.65-37-21.88,0,.28,0,.55,0,.81s0,.5,0,.74c11.9,7.17,24.13,14.39,36.33,21.41,10.39,6,17.69,10.1,23,13.1,9.38,5.26,12.88,7.22,16.9,10.35,17.21,13.36,28.34,35.94,33.07,67.1.47.33.93.63,1.39.9a168,168,0,0,0-4.45-21.29,66.67,66.67,0,0,0,16.22,2.06,61.28,61.28,0,0,0,11.1-1c6.82-1.28,12.19-3.53,15.54-6.5a25.93,25.93,0,0,0,7.19-10.95Z"/><path class="z" d="M1542.52,579.45c0,5.73-7.49,10.37-16.72,10.37s-16.73-4.64-16.73-10.37c0-3.2,2.34-6.07,6-8a21.11,21.11,0,0,1,5.9-2,26.73,26.73,0,0,1,4.81-.43,25.68,25.68,0,0,1,6.54.82,19,19,0,0,1,4.88,2C1540.48,573.78,1542.52,576.46,1542.52,579.45Z"/><path class="aa" d="M1542.52,578.2c0,5.74-7.49,10.38-16.72,10.38s-16.73-4.64-16.73-10.38c0-3.19,2.34-6.06,6-8a21.11,21.11,0,0,1,5.9-2,25.84,25.84,0,0,1,4.81-.44,26.14,26.14,0,0,1,6.54.82,19.78,19.78,0,0,1,4.88,2C1540.48,572.53,1542.52,575.22,1542.52,578.2Z"/><rect class="ab" x="1519.55" y="564.05" width="13.87" height="16.81" rx="4.61"/><path class="ac" d="M1547.49,560.32a7.14,7.14,0,0,1-.26,1.9c-1,3.6-4.78,6.64-10,8.42a32.6,32.6,0,0,1-3.81,1,35.14,35.14,0,0,1-6.71.63,35.53,35.53,0,0,1-7.16-.72,28.27,28.27,0,0,1-4.45-1.31,17.34,17.34,0,0,1-7.16-4.78,8,8,0,0,1-2-5.15c0-6.6,9.3-12,20.8-12S1547.49,553.72,1547.49,560.32Z"/><ellipse class="ad" cx="1526.8" cy="558.52" rx="15.72" ry="8.79"/><path class="t" d="M1693.38,549.65c-15.46,46.36-68.16,23.29-68.16,23.29l-49.37-28.59c0-.61,0-1.24,0-1.89.21-12.71,6.34-15.67,6.34-15.67l22-13.12a3.2,3.2,0,0,1,.2-.28,17.25,17.25,0,0,0,7.16,4.78c-3.68,1.89-6,4.76-6,8,0,5.14,6,9.4,13.92,10.22a25.9,25.9,0,0,0,2.81.15c9.23,0,16.72-4.64,16.72-10.37,0-3-2-5.67-5.3-7.56,4.76-1.62,8.31-4.29,9.66-7.46a6.18,6.18,0,0,0,.35-1l1.13.66c12.7,7.46,28.68,17.56,39.91,28.65A65.2,65.2,0,0,1,1693.38,549.65Z"/><path class="ae" d="M1720.05,668.62a43.45,43.45,0,0,1-24.33.08,36.31,36.31,0,0,1-9.12-3.88c-.46-.27-.92-.57-1.39-.89-.63-.44-1.28-.91-1.91-1.42-10.87-8.75-12.3-22.41-12.58-26.07-13.33-41.06-72.81-63.5-84-70.91-8.39-3.28-10.41-7.12-10.81-13.57,0-.24,0-.49,0-.73s0-.54,0-.81c0-1.82,0-3.82,0-6.07l1,.57,2.71,1.56,4.08,2.37,5.12,3,5.8,3.36,6.14,3.56c5.53,3.2,11,6.47,16.56,9.62,3.89,2.22,7.72,4.65,12,6.1q1.71.59,3.45,1.08c1.42.42,2.85.79,4.29,1.13,1.64.39,3.29.72,5,1q2.73.47,5.48.72c1.94.18,3.89.29,5.83.29a53.18,53.18,0,0,0,6-.31,46.88,46.88,0,0,0,6.1-1.06,39.8,39.8,0,0,0,6-2,35.86,35.86,0,0,0,5.74-3.05,34.9,34.9,0,0,0,5.33-4.29,38.08,38.08,0,0,0,4.77-5.68,46.58,46.58,0,0,0,4-7.23,55.74,55.74,0,0,0,2.11-5.42c10.85,14.85,27.48,49.68,38.18,75.91.22.52.43,1.05.64,1.57,2.6,6.43,4.82,12.3,6.48,17.15C1748.2,665.87,1720.05,668.62,1720.05,668.62Z"/><path class="af" d="M1684.8,539.46c-2.54,12-16.09,21.18-32.43,21.18-17.74,0-32.19-10.78-32.85-24.29,0-.31,0-.63,0-1,0-11.55,10.11-21.3,23.91-24.28.49-.12,1-.22,1.48-.3C1657.59,518.27,1673.57,528.37,1684.8,539.46Z"/><ellipse class="w" cx="1640.22" cy="545.62" rx="7.38" ry="4.91"/><ellipse class="x" cx="1640.22" cy="544.24" rx="7.38" ry="4.91"/><ellipse class="w" cx="1658.95" cy="534.42" rx="7.38" ry="4.91"/><ellipse class="x" cx="1658.95" cy="533.04" rx="7.38" ry="4.91"/><ellipse class="w" cx="1660.7" cy="548.54" rx="5.57" ry="3.7"/><ellipse class="x" cx="1660.7" cy="547.5" rx="5.57" ry="3.7"/><path class="y" d="M1731.56,625.56a27.21,27.21,0,0,1-7.37,11.58c-3.17,2.84-8.35,5-14.94,6.21a62.71,62.71,0,0,1-27.49-1.2c-6-20.54-15.66-36.07-28.86-46.31-4.09-3.17-7.62-5.16-17.05-10.46-5.34-3-12.64-7.09-23-13.09-12.28-7.07-25-14.65-37-21.87,0,.27,0,.55,0,.81s0,.49,0,.73c11.9,7.18,24.13,14.39,36.33,21.42,10.39,6,17.7,10.09,23,13.09,9.38,5.26,12.89,7.23,16.9,10.35,17.21,13.37,28.35,35.94,33.07,67.11.47.32.93.62,1.39.89a167.86,167.86,0,0,0-4.45-21.28,67.16,67.16,0,0,0,16.22,2.06,61.39,61.39,0,0,0,11.11-1c6.81-1.28,12.18-3.54,15.53-6.51a25.8,25.8,0,0,0,7.19-10.94C1732,626.61,1731.78,626.08,1731.56,625.56Z"/><path class="z" d="M1639.05,527.37c0,5.74-7.49,10.37-16.72,10.37s-16.73-4.63-16.73-10.37c0-3.19,2.34-6.07,6-8a21.43,21.43,0,0,1,5.9-2,25.84,25.84,0,0,1,4.81-.44,26.14,26.14,0,0,1,6.54.82,19.78,19.78,0,0,1,4.88,2C1637,521.7,1639.05,524.39,1639.05,527.37Z"/><path class="aa" d="M1639.05,526.13c0,5.73-7.49,10.37-16.72,10.37s-16.73-4.64-16.73-10.37c0-3.2,2.34-6.07,6-8a21.11,21.11,0,0,1,5.9-2,26.73,26.73,0,0,1,4.81-.43,25.68,25.68,0,0,1,6.54.82,19,19,0,0,1,4.88,2C1637,520.46,1639.05,523.14,1639.05,526.13Z"/><rect class="ag" x="1616.08" y="511.97" width="13.87" height="16.81" rx="4.61"/><path class="ah" d="M1644,508.24a7.21,7.21,0,0,1-.26,1.91c-1,3.59-4.78,6.64-10,8.42a32.6,32.6,0,0,1-3.81,1,35.68,35.68,0,0,1-13.86-.08,29.17,29.17,0,0,1-4.46-1.32,17.25,17.25,0,0,1-7.16-4.78,8,8,0,0,1-2-5.15c0-6.6,9.3-12,20.8-12S1644,501.64,1644,508.24Z"/><ellipse class="ad" cx="1623.33" cy="506.44" rx="15.72" ry="8.79"/><circle class="ai" cx="1643.09" cy="305.91" r="3.64"/><circle class="ai" cx="1674.32" cy="305.23" r="3.64"/><circle class="ai" cx="1705.55" cy="304.55" r="3.64"/><circle class="ai" cx="1736.79" cy="303.87" r="3.64"/><circle class="ai" cx="1768.02" cy="303.19" r="3.64"/><circle class="ai" cx="1659" cy="289.65" r="3.64"/><circle class="ai" cx="1690.23" cy="288.97" r="3.64"/><circle class="ai" cx="1721.47" cy="288.29" r="3.64"/><circle class="ai" cx="1752.7" cy="287.61" r="3.64"/><circle class="ai" cx="1783.94" cy="286.93" r="3.64"/><circle class="ai" cx="1674.92" cy="273.4" r="3.64"/><circle class="ai" cx="1706.15" cy="272.72" r="3.64"/><circle class="ai" cx="1737.38" cy="272.04" r="3.64"/><circle class="ai" cx="1768.62" cy="271.36" r="3.64"/><circle class="ai" cx="1799.85" cy="270.67" r="3.64"/><circle class="ai" cx="1690.83" cy="257.14" r="3.64"/><circle class="ai" cx="1722.06" cy="256.46" r="3.64"/><circle class="ai" cx="1753.3" cy="255.78" r="3.64"/><circle class="ai" cx="1784.53" cy="255.1" r="3.64"/><circle class="ai" cx="1815.77" cy="254.42" r="3.64"/><circle class="ai" cx="1706.74" cy="240.89" r="3.64"/><circle class="ai" cx="1737.98" cy="240.21" r="3.64"/><circle class="ai" cx="1769.21" cy="239.53" r="3.64"/><circle class="ai" cx="1800.45" cy="238.84" r="3.64"/><circle class="ai" cx="1831.68" cy="238.16" r="3.64"/><circle class="ai" cx="1722.66" cy="224.63" r="3.64"/><circle class="ai" cx="1753.89" cy="223.95" r="3.64"/><circle class="ai" cx="1785.13" cy="223.27" r="3.64"/><circle class="ai" cx="1816.36" cy="222.59" r="3.64"/><circle class="ai" cx="1847.6" cy="221.91" r="3.64"/><circle class="ai" cx="1738.57" cy="208.38" r="3.64"/><circle class="ai" cx="1769.81" cy="207.7" r="3.64"/><circle class="ai" cx="1801.04" cy="207.02" r="3.64"/><circle class="ai" cx="1832.28" cy="206.33" r="3.64"/><circle class="ai" cx="1863.51" cy="205.65" r="3.64"/><circle class="ai" cx="1754.49" cy="192.12" r="3.64"/><circle class="ai" cx="1785.72" cy="191.44" r="3.64"/><circle class="ai" cx="1816.96" cy="190.76" r="3.64"/><circle class="ai" cx="1848.19" cy="190.08" r="3.64"/><circle class="ai" cx="1879.43" cy="189.4" r="3.64"/><circle class="ai" cx="1770.4" cy="175.87" r="3.64"/><circle class="ai" cx="1801.64" cy="175.19" r="3.64"/><circle class="ai" cx="1832.87" cy="174.5" r="3.64"/><circle class="ai" cx="1864.11" cy="173.82" r="3.64"/><circle class="ai" cx="1895.34" cy="173.14" r="3.64"/><circle class="ai" cx="1786.32" cy="159.61" r="3.64"/><circle class="ai" cx="1817.55" cy="158.93" r="3.64"/><circle class="ai" cx="1848.79" cy="158.25" r="3.64"/><circle class="ai" cx="1880.02" cy="157.57" r="3.64"/><circle class="ai" cx="1911.26" cy="156.89" r="3.64"/><circle class="ai" cx="1802.23" cy="143.36" r="3.64"/><circle class="ai" cx="1833.47" cy="142.67" r="3.64"/><circle class="ai" cx="1864.7" cy="141.99" r="3.64"/><circle class="ai" cx="1895.94" cy="141.31" r="3.64"/><circle class="ai" cx="1818.15" cy="127.1" r="3.64"/><circle class="ai" cx="1849.38" cy="126.42" r="3.64"/><circle class="ai" cx="1880.62" cy="125.74" r="3.64"/><circle class="ai" cx="1911.85" cy="125.06" r="3.64"/><circle class="ai" cx="1834.06" cy="110.84" r="3.64"/><circle class="ai" cx="1865.3" cy="110.16" r="3.64"/><circle class="ai" cx="1896.53" cy="109.48" r="3.64"/><circle class="ai" cx="1849.98" cy="94.59" r="3.64"/><circle class="ai" cx="1881.21" cy="93.91" r="3.64"/><circle class="ai" cx="1912.45" cy="93.23" r="3.64"/><circle class="ai" cx="1865.89" cy="78.33" r="3.64"/><circle class="ai" cx="1897.13" cy="77.65" r="3.64"/><circle class="ai" cx="1881.81" cy="62.08" r="3.64"/><circle class="ai" cx="1913.04" cy="61.4" r="3.64"/><circle class="ai" cx="1897.72" cy="45.82" r="3.64"/><circle class="ai" cx="1913.64" cy="29.57" r="3.64"/><polygon class="aj" points="1916.64 342.62 1916.64 309.1 1855.32 370.42 1706.78 518.97 1675.91 549.83 1916.64 549.83 1916.64 518.97 1741.66 518.97 1855.32 404.41 1916.64 342.62"/><polygon class="ak" points="1763.13 518.97 1916.64 366.41 1916.64 342.62 1741.66 518.97 1763.13 518.97"/><polygon class="al" points="1763.13 518.97 1916.64 518.97 1916.64 366.41 1763.13 518.97"/></svg>