<svg xmlns="http://www.w3.org/2000/svg" viewBox="0 0 1920 179.05"><defs><style>.a{fill:#000034;}</style></defs><path class="a" d="M1920,124.82V106.44c-68-26.73-131.23-18.49-169.13-13.55-30.32,4-64.25,11.82-104.39,21.61l-5.59,1.36L1628.06,119c-27,6.61-29.79,7.89-39,10.22-2.2.55-4.76,1.16-8.09,1.92l-.63.14c-48.9,11.08-102.94,23.32-162.1,14.27a210.58,210.58,0,0,1-36-9c-1.37-.45-2.75-.92-4.15-1.41-7.65-2.68-15.87-5.84-25-9.53-13.39-5.42-28.76-12-47.22-19.86l-3.75-1.61c-11.7-5.06-20.81-9.29-28.8-13.11l-1.33-.64c-16.3-7.82-28.2-14-48.91-22.47-3.67-1.5-7.62-3.06-11.92-4.72-24.39-9.39-49.82-19.18-82.28-26.73q-6.06-1.41-12.46-2.72a464,464,0,0,0-63.69-8.35c-8.14-.5-16.6-.81-25.35-.86-9.22-.06-18.76.16-28.59.71q-11.37.64-23.23,1.92C940.27,31,911,39.91,852.4,57.73c-12.59,3.83-22.86,7.12-32.06,10.17-4.7,1.56-9.12,3.06-13.42,4.55-3.18,1.09-6.29,2.17-9.41,3.26l-2.49.88c-11.71,4.12-23.73,8.41-39.56,13.78l-1.88.64c-7.49,2.53-15.82,5.3-25.36,8.41-4.28,1.39-8.8,2.85-13.59,4.38l-8.53,2.72c-28.21,9-48.6,15-64.62,19.07-6.51,1.65-12.3,3-17.6,4a180.25,180.25,0,0,1-37.52,3.7,309.3,309.3,0,0,1-34.93-2.13c-12.19-1.4-23-3.29-31.46-5-9.82-2-16.35-3.71-17.86-4.12-15.19-4.1-26.12-8.27-38.53-12.65l-1.5-.53a415.19,415.19,0,0,0-40.17-12l-2.57-.63c-1.29-.31-23.77-5.7-49-9.37Q360,85.38,350,84.35q-3.84-.39-7.65-.72C266.05,77,202.56,88.71,189.79,91.37c-42.68,8.93-55.89,18-107.43,25.09C34.42,123,10.27,120.07,0,118.5l1.1,60.55,1918.9-.3V130.61s-25.22-12.46-46.49-17.39C1873.51,113.22,1903.32,113.59,1920,124.82ZM128.83,124c-15.32,5.27-63.49,13.61-109.79,5.1,0,0,65.53,4.43,111.66-10.38,24.34-8,36.09-12.6,51.58-10.72C160.49,112.54,144.15,118.67,128.83,124Zm111-22.64c-4.6-.68-24.85-.51-31.49,1.19,0,0,21.11-8.85,31.49-6.13C239.81,96.37,245.6,98.92,239.81,101.31Zm185,9c10,2.28,20.6,8,23.75,9.84-4.6-2.13-21.41-5.51-23.75-6.61C422.28,112.37,424.83,110.33,424.83,110.33Zm23.75,9.84a4.31,4.31,0,0,1,.93.54Zm68.68,38.67c-9.37,1.36-30.8-3.58-50-16,.94.41,31.59,13.77,50,13.27C517.26,156.12,519.81,158.16,517.26,158.84ZM591.81,152c-24.34,4.09-95.32-11.4-110.3-25,0,0,62.3,26,114.89,21.45C596.4,148.46,596.4,150.67,591.81,152Zm80.34-7.83s-28.94,14.3-50.55,14.64c0,0,41.61-12,49-16.85C672.66,141.39,672.15,144.2,672.15,144.2ZM1028.32,42.92c-20.17.51-80.15-2.29-169.23,25.77C861.68,67.6,961.54,26,1028.32,42.92ZM1003.81,70.5S1089.34,47,1263.21,130C1220.57,117.73,1114.36,67.43,1003.81,70.5Zm277.29,38.31c1,.43,61.47,28.52,77.28,31.13C1356.27,139.6,1307.08,131.53,1281.1,108.81Zm269.35,45.69C1530,162.41,1447,168,1417.17,159.6c0,0,86,4.09,141.45-12.25,54.16-16,100.53-18,102.57-18.12C1658.45,129.76,1570.55,146.7,1550.45,154.5Zm240.17-41.28c-7.49,2.9-29.27-3.91-61.77,6.63.94-.47,33.28-16.47,63.47-14.12C1799.51,106.43,1794,113.22,1790.62,113.22Z"/><path class="a" d="M1920,124.82h0v5.79h0Z"/><path class="a" d="M1289.43,78.83c52.34,30.22,84.51,35.66,84.51,35.66Z"/><path class="a" d="M1434.15,103.56c1,0,3.86-4.63-2.43-4.34-14,1.91-31.27-3.32-31.27-3.32C1416,104.32,1422.15,103.92,1434.15,103.56Z"/><path class="a" d="M1557,121.81c-58.09,14.81-146.3,4.22-146.3,4.22C1501.3,148.24,1557,121.81,1557,121.81Z"/><path class="a" d="M1853.94,63.18c-39.32-12.94-163.41,21.1-163.41,21.1C1809,59.09,1853.94,63.18,1853.94,63.18Z"/><path class="a" d="M151.55,80.71C131.64,90.15,75,97.05,75,97.05,135.21,98.07,151.55,80.71,151.55,80.71Z"/><path class="a" d="M319,56.37c26.55-4.6,65.87,12.08,65.87,12.08S347.55,47,323.89,50.92s-63,5.11-63,5.11S292.4,61,319,56.37Z"/><path class="a" d="M538.87,111.6c-21.44-.51-44.17-10-44.17-10C511.81,118.49,538.87,111.6,538.87,111.6Z"/><path class="a" d="M1046.7,2.58C1001.26-9.17,884.06,23,884.06,23,987,2.32,1005.6,2.58,1046.7,2.58Z"/></svg>